<?xml version="1.0" encoding="utf-8"?>
<!-- Generator: Adobe Illustrator 17.0.0, SVG Export Plug-In . SVG Version: 6.00 Build 0)  -->
<!DOCTYPE svg PUBLIC "-//W3C//DTD SVG 1.1//EN" "http://www.w3.org/Graphics/SVG/1.1/DTD/svg11.dtd">
<svg version="1.1" id="Layer_1" xmlns="http://www.w3.org/2000/svg" xmlns:xlink="http://www.w3.org/1999/xlink" x="0px" y="0px"
	 width="425.644px" height="200.848px" viewBox="-0.222 608.492 425.644 200.848"
	 enable-background="new -0.222 608.492 425.644 200.848" xml:space="preserve">
<g>
	<rect x="97.419" y="727.033" fill="#CCCCCC" width="48.387" height="47.491"/>
	<rect x="102.795" y="734.202" fill="#B3B3B3" width="8.065" height="17.025"/>
	<rect x="101.899" y="749.434" fill="#999999" width="9.857" height="1.792"/>
	<rect x="116.236" y="734.202" fill="#B3B3B3" width="7.168" height="17.025"/>
	<rect x="115.34" y="749.434" fill="#999999" width="8.96" height="1.792"/>
	<rect x="128.781" y="734.202" fill="#B3B3B3" width="8.065" height="17.025"/>
	<rect x="127.885" y="749.434" fill="#999999" width="9.857" height="1.792"/>
</g>
<g>
	<rect x="91.283" y="761.669" opacity="0.5" fill="#D9D9D9" enable-background="new    " width="24.189" height="8.959"/>
	<path opacity="0.2" fill="#999999" enable-background="new    " d="M139.662,763.461v-1.792H83.611
		c1.65,17.022,0.753,28.669-0.197,46.586h53.56v-8.063h2.688V798.4h-2.688v-16.127h2.688v-1.792h-2.688v-17.022h2.688V763.461z"/>
	<rect x="77.844" y="759.877" fill="#D9D9D9" width="57.338" height="48.379"/>
	<rect x="75.157" y="778.691" fill="#B3B3B3" width="62.713" height="1.792"/>
	<rect x="75.157" y="759.877" fill="#B3B3B3" width="62.713" height="1.792"/>
	<rect x="75.157" y="796.609" fill="#B3B3B3" width="62.713" height="1.792"/>
	<rect x="102.93" y="767.044" fill="#B3B3B3" width="7.167" height="8.063"/>
	<rect x="85.012" y="767.044" fill="#B3B3B3" width="7.167" height="8.063"/>
	<rect x="120.848" y="767.044" fill="#B3B3B3" width="7.167" height="8.063"/>
	<rect x="102.93" y="784.066" fill="#B3B3B3" width="7.167" height="8.063"/>
	<rect x="85.012" y="784.066" fill="#B3B3B3" width="7.167" height="8.063"/>
	<rect x="120.848" y="784.066" fill="#B3B3B3" width="7.167" height="8.063"/>
</g>
<g>
	<g>
		<polygon opacity="0.1" enable-background="new    " points="183.916,727.183 127.806,727.183 90.779,807.368 183.916,807.368 		
			"/>
		<rect x="130.459" y="688.872" fill="#E6E6E6" width="56.13" height="118.496"/>
		<g>
			<rect x="155.406" y="705.8" fill="#CCCCCC" width="6.237" height="82.858"/>
			<rect x="139.369" y="705.8" fill="#CCCCCC" width="6.237" height="82.858"/>
			<rect x="171.443" y="705.8" fill="#CCCCCC" width="6.237" height="82.858"/>
		</g>
		<polygon opacity="0.1" enable-background="new    " points="180.352,689.37 180.352,807.368 130.502,807.368 		"/>
	</g>
	<rect x="142.042" y="686.199" fill="#F1F0AF" width="32.965" height="2.673"/>
	<rect x="142.042" y="686.199" fill="#D9D9D9" width="32.965" height="2.673"/>
	<rect x="142.042" y="686.199" fill="#B3B3B3" width="16.037" height="2.673"/>
</g>
<g>
	<polygon fill="#EA5752" points="223.084,619.845 223.081,617.972 224.876,617.92 224.873,616.099 224.87,614.292 223.075,614.394 
		223.077,616.294 221.282,616.294 221.285,617.984 219.489,618.038 219.487,616.294 217.685,616.294 217.687,614.396 
		215.892,614.348 215.889,612.525 214.093,612.515 214.097,614.304 214.099,616.096 215.895,616.092 215.899,617.887 
		214.103,617.889 214.026,616.094 212.156,616.096 212.156,616.108 210.711,616.102 210.74,617.897 208.963,617.889 208.98,616.094 
		210.78,616.102 210.79,614.306 210.799,612.511 209.004,612.503 208.997,614.299 207.201,614.291 207.194,616.087 205.398,616.079 
		205.39,617.874 203.595,617.866 203.602,616.071 201.807,616.064 201.815,614.268 199.996,614.292 200.012,616.056 
		199.845,617.851 201.504,617.855 201.504,619.845 199.997,619.845 199.989,621.62 199.729,621.62 199.729,640.262 208.123,640.262 
		210.248,644.239 212.46,648.221 214.673,644.164 216.797,640.262 224.584,640.262 224.584,619.845 	"/>
	
		<rect x="203.608" y="614.27" transform="matrix(-1 -0.0042 0.0042 -1 406.4266 1231.1884)" fill="#EA5752" width="1.796" height="1.796"/>
	
		<rect x="205.412" y="612.49" transform="matrix(-1 -0.0042 0.0042 -1 410.041 1227.6371)" fill="#EA5752" width="1.796" height="1.796"/>
	<rect x="212.335" y="610.668" fill="#EA5752" width="1.796" height="1.796"/>
	<rect x="219.485" y="614.287" fill="#EA5752" width="1.796" height="1.796"/>
	<rect x="217.686" y="612.494" fill="#EA5752" width="1.796" height="1.796"/>
	<rect x="221.274" y="610.693" fill="#EA5752" width="1.796" height="1.796"/>
	<rect x="201.473" y="610.267" fill="#EA5752" width="1.775" height="1.775"/>
	<rect x="206.799" y="608.492" fill="#EA5752" width="1.775" height="1.775"/>
	<rect x="216.563" y="608.492" fill="#EA5752" width="1.775" height="1.775"/>
</g>
<g>
	<polygon fill="#F1F0AF" points="268.936,694.82 252.858,700.308 252.858,706.97 285.086,705.179 285.086,700.308 	"/>
	<rect x="248.382" y="702.881" fill="#F1F0AF" width="41.18" height="7.162"/>
	<polygon fill="#CCCCCC" points="285.086,702.881 285.086,700.308 268.936,694.82 252.858,700.308 252.858,702.881 248.382,702.881 
		248.382,710.042 289.561,710.042 289.561,702.881 	"/>
	<rect x="242.115" y="705.567" fill="#CCCCCC" width="52.817" height="102.053"/>
	<rect x="242.115" y="705.567" fill="#B3B3B3" width="52.817" height="3.581"/>
	<rect x="250.172" y="722.576" fill="#B3B3B3" width="36.703" height="4.476"/>
	<rect x="250.172" y="733.318" fill="#B3B3B3" width="36.703" height="4.476"/>
	<rect x="250.172" y="743.165" fill="#B3B3B3" width="36.703" height="4.476"/>
	<rect x="250.172" y="753.908" fill="#B3B3B3" width="36.703" height="4.476"/>
	<rect x="250.172" y="763.755" fill="#B3B3B3" width="36.703" height="4.476"/>
	<rect x="250.172" y="774.497" fill="#B3B3B3" width="36.703" height="4.476"/>
	<rect x="250.172" y="784.345" fill="#B3B3B3" width="36.703" height="4.476"/>
</g>
<rect x="197.066" y="656.24" fill="#6DC5A7" width="31.069" height="12.428"/>
<rect x="188.189" y="662.454" fill="#6DC5A7" width="48.823" height="18.641"/>
<polygon fill="#666666" points="228.134,662.454 228.134,656.24 197.066,656.24 197.066,662.454 188.189,662.454 188.189,681.095 
	237.011,681.095 237.011,662.454 "/>
<polygon opacity="0.1" enable-background="new    " points="228.411,662.343 228.411,656.018 196.789,656.018 196.789,662.343 
	187.753,662.343 187.753,681.317 237.447,681.317 237.447,662.343 "/>
<rect x="179.978" y="669.975" fill="#666666" width="65.245" height="137.64"/>
<rect x="180.2" y="670.443" opacity="0.3" fill="#010101" enable-background="new    " width="64.801" height="3.551"/>
<g opacity="0.3">
	<rect x="201.403" y="699.438" fill="#010101" width="8.958" height="12.54"/>
	<rect x="187.967" y="699.438" fill="#010101" width="8.958" height="12.54"/>
	<rect x="214.84" y="699.438" fill="#010101" width="8.958" height="12.54"/>
	<rect x="228.276" y="699.438" fill="#010101" width="8.958" height="12.54"/>
	<rect x="201.403" y="717.353" fill="#010101" width="8.958" height="12.54"/>
	<rect x="187.967" y="717.353" fill="#010101" width="8.958" height="12.54"/>
	<rect x="214.84" y="717.353" fill="#010101" width="8.958" height="12.54"/>
	<rect x="228.276" y="717.353" fill="#010101" width="8.958" height="12.54"/>
	<rect x="201.403" y="681.523" fill="#010101" width="8.958" height="11.645"/>
	<rect x="187.967" y="681.523" fill="#010101" width="8.958" height="11.645"/>
	<rect x="214.84" y="681.523" fill="#010101" width="8.958" height="11.645"/>
	<rect x="228.276" y="681.523" fill="#010101" width="8.958" height="11.645"/>
	<rect x="201.403" y="735.268" fill="#010101" width="8.958" height="12.54"/>
	<rect x="187.967" y="735.268" fill="#010101" width="8.958" height="12.54"/>
	<rect x="214.84" y="735.268" fill="#010101" width="8.958" height="12.54"/>
	<rect x="228.276" y="735.268" fill="#010101" width="8.958" height="12.54"/>
	<rect x="201.403" y="753.183" fill="#010101" width="8.958" height="12.54"/>
	<rect x="187.967" y="753.183" fill="#010101" width="8.958" height="12.54"/>
	<rect x="214.84" y="753.183" fill="#010101" width="8.958" height="12.54"/>
	<rect x="228.276" y="753.183" fill="#010101" width="8.958" height="12.54"/>
	<rect x="201.403" y="771.098" fill="#010101" width="8.958" height="12.54"/>
	<rect x="187.967" y="771.098" fill="#010101" width="8.958" height="12.54"/>
	<rect x="214.84" y="771.098" fill="#010101" width="8.958" height="12.54"/>
	<rect x="228.276" y="771.098" fill="#010101" width="8.958" height="12.54"/>
</g>
<g opacity="0.3">
	<rect x="203.279" y="789.392" width="17.754" height="17.754"/>
</g>
<g opacity="0.3">
	<polygon points="215.707,807.146 221.033,807.146 221.033,789.392 203.279,789.392 203.279,793.831 215.707,793.831 	"/>
</g>
<rect x="192.627" y="678.121" fill="none" stroke="#666666" stroke-width="2" stroke-miterlimit="10" width="0" height="106.731"/>
<rect x="205.942" y="678.121" fill="none" stroke="#666666" stroke-width="2" stroke-miterlimit="10" width="0" height="106.731"/>
<rect x="219.258" y="678.121" fill="none" stroke="#666666" stroke-width="2" stroke-miterlimit="10" width="0" height="106.731"/>
<rect x="232.573" y="678.121" fill="none" stroke="#666666" stroke-width="2" stroke-miterlimit="10" width="0" height="106.731"/>
<polygon opacity="0.1" enable-background="new    " points="300.039,745.258 273.196,743.579 243.628,808.033 300.107,808.921 "/>
<g>
	<rect x="323.171" y="762.627" fill="#D9D9D9" width="27.686" height="43.762"/>
	<rect x="318.705" y="769.771" fill="#BFBFBF" width="26.793" height="7.145"/>
	<rect x="318.705" y="781.382" fill="#BFBFBF" width="26.793" height="8.038"/>
	<rect x="318.705" y="793.885" fill="#BFBFBF" width="26.793" height="7.145"/>
	<rect x="277.623" y="762.627" opacity="0.1" enable-background="new    " width="50.907" height="44.655"/>
</g>
<g>
	<rect x="275.891" y="746.587" fill="#E6E6E6" width="50.949" height="60.781"/>
	<polygon fill="#E6E6E6" points="330.416,743.011 273.21,743.011 273.21,747.159 276.232,748.374 327.052,748.374 330.416,747.159 	
		"/>
	<polygon fill="#CCCCCC" points="272.998,746.587 276.232,748.374 327.052,748.374 330.285,746.587 	"/>
</g>
<polygon opacity="0.1" enable-background="new    " points="301.717,743.233 273.406,743.233 273.406,747.353 276.312,748.559 
	276.069,748.559 276.069,807.146 301.785,807.146 "/>
<line fill="none" stroke="#A6A6A6" stroke-width="3.5" stroke-miterlimit="10" x1="-0.222" y1="807.59" x2="425.422" y2="807.59"/>
<g>
	<polygon fill="#FFFFFF" points="205.526,624.283 210.506,624.283 220.703,635.823 215.259,635.823 	"/>
	<polygon fill="#FFFFFF" points="219.345,624.283 214.366,624.283 204.168,635.823 209.612,635.823 	"/>
</g>
<g>
	<rect x="382.779" y="794.276" fill="#B4C295" width="1.838" height="12.871"/>
	<rect x="382.779" y="794.276" fill="#999999" width="1.838" height="12.871"/>
	<path fill="#BFBFBF" d="M389.358,795.043c0,3.32-2.692,6.011-6.014,6.011c-3.322,0-6.014-2.691-6.014-6.011
		s2.692-13.682,6.014-13.682C386.666,781.361,389.358,791.723,389.358,795.043z"/>
	<line fill="none" stroke="#D9D9D9" stroke-miterlimit="10" x1="383.238" y1="798.872" x2="383.238" y2="787.84"/>
	
		<line fill="none" stroke="#D9D9D9" stroke-width="0.9596" stroke-miterlimit="10" x1="383.248" y1="793.399" x2="386.604" y2="790.042"/>
	
		<line fill="none" stroke="#D9D9D9" stroke-width="0.9596" stroke-miterlimit="10" x1="383.248" y1="796.37" x2="379.891" y2="793.013"/>
	<g>
		<rect x="367.262" y="796.069" fill="#B4C295" width="1.846" height="11.077"/>
		<rect x="367.262" y="796.069" fill="#999999" width="1.846" height="11.077"/>
		<path fill="#BFBFBF" d="M373.491,796.279c0,2.977-2.414,5.391-5.394,5.391c-2.979,0-5.394-2.414-5.394-5.391
			s2.414-12.27,5.394-12.27C371.076,784.009,373.491,793.302,373.491,796.279z"/>
		<line fill="none" stroke="#D9D9D9" stroke-miterlimit="10" x1="368.647" y1="799.761" x2="368.647" y2="789.607"/>
		
			<line fill="none" stroke="#D9D9D9" stroke-width="0.9596" stroke-miterlimit="10" x1="368.158" y1="794.971" x2="371.093" y2="792.036"/>
		
			<line fill="none" stroke="#D9D9D9" stroke-width="0.9596" stroke-miterlimit="10" x1="368.158" y1="797.57" x2="365.222" y2="794.634"/>
	</g>
	<g>
		<rect x="56.994" y="796.069" fill="#B4C295" width="1.846" height="11.077"/>
		<rect x="40.997" y="794.276" fill="#B4C295" width="1.838" height="12.871"/>
		<rect x="56.994" y="796.069" fill="#999999" width="1.846" height="11.077"/>
		<rect x="40.997" y="794.276" fill="#999999" width="1.838" height="12.871"/>
		<path fill="#BFBFBF" d="M63.032,796.279c0,2.977-2.414,5.391-5.394,5.391c-2.979,0-5.394-2.414-5.394-5.391
			s2.414-12.27,5.394-12.27C60.616,784.009,63.032,793.302,63.032,796.279z"/>
		<path fill="#BFBFBF" d="M48.285,795.043c0,3.32-2.692,6.011-6.014,6.011s-6.014-2.691-6.014-6.011s2.692-13.682,6.014-13.682
			C45.591,781.361,48.285,791.723,48.285,795.043z"/>
		<line fill="none" stroke="#D9D9D9" stroke-miterlimit="10" x1="42.375" y1="798.872" x2="42.375" y2="787.84"/>
		
			<line fill="none" stroke="#D9D9D9" stroke-width="0.9596" stroke-miterlimit="10" x1="42.174" y1="793.399" x2="45.531" y2="790.042"/>
		
			<line fill="none" stroke="#D9D9D9" stroke-width="0.9596" stroke-miterlimit="10" x1="42.174" y1="796.37" x2="38.817" y2="793.013"/>
		<line fill="none" stroke="#D9D9D9" stroke-miterlimit="10" x1="57.455" y1="799.761" x2="57.455" y2="789.607"/>
		
			<line fill="none" stroke="#D9D9D9" stroke-width="0.9596" stroke-miterlimit="10" x1="57.698" y1="794.971" x2="60.633" y2="792.036"/>
		
			<line fill="none" stroke="#D9D9D9" stroke-width="0.9596" stroke-miterlimit="10" x1="57.698" y1="797.57" x2="54.763" y2="794.634"/>
	</g>
</g>
<polygon opacity="0.1" enable-background="new    " points="212.156,656.24 197.066,656.24 197.066,662.454 188.189,662.454 
	188.189,670.443 180.2,670.443 180.2,807.146 212.156,807.146 "/>
<g>
	<rect x="291.16" y="772.526" fill="#B3B3B3" width="7.101" height="7.101"/>
	<rect x="280.508" y="772.526" fill="#B3B3B3" width="7.101" height="7.101"/>
	<rect x="305.363" y="772.526" fill="#CCCCCC" width="7.101" height="7.101"/>
	<rect x="316.015" y="772.526" fill="#CCCCCC" width="7.101" height="7.101"/>
	<rect x="291.16" y="784.954" fill="#B3B3B3" width="7.101" height="7.989"/>
	<rect x="280.508" y="784.954" fill="#B3B3B3" width="7.101" height="7.989"/>
	<rect x="305.363" y="784.954" fill="#CCCCCC" width="7.101" height="7.989"/>
	<rect x="316.015" y="784.954" fill="#CCCCCC" width="7.101" height="7.989"/>
	<rect x="291.16" y="759.211" fill="#B3B3B3" width="7.101" height="7.989"/>
	<rect x="280.508" y="759.211" fill="#B3B3B3" width="7.101" height="7.989"/>
	<rect x="305.363" y="759.211" fill="#CCCCCC" width="7.101" height="7.989"/>
	<rect x="316.015" y="759.211" fill="#CCCCCC" width="7.101" height="7.989"/>
</g>
</svg>
