<?xml version="1.0" encoding="utf-8"?>
<!-- Generator: Adobe Illustrator 17.0.0, SVG Export Plug-In . SVG Version: 6.00 Build 0)  -->
<!DOCTYPE svg PUBLIC "-//W3C//DTD SVG 1.1//EN" "http://www.w3.org/Graphics/SVG/1.1/DTD/svg11.dtd">
<svg version="1.1" id="Layer_1" xmlns="http://www.w3.org/2000/svg" xmlns:xlink="http://www.w3.org/1999/xlink" x="0px" y="0px"
	 width="425.2px" height="201.247px" viewBox="0 783.348 425.2 201.247" enable-background="new 0 783.348 425.2 201.247"
	 xml:space="preserve">
<g>
	<g>
		<rect x="97.963" y="902.154" fill="#CCCCCC" width="47.939" height="47.244"/>
		<rect x="102.826" y="909.796" fill="#B3B3B3" width="8.337" height="16.675"/>
		<rect x="102.131" y="924.386" fill="#999999" width="9.727" height="2.084"/>
		<rect x="116.027" y="909.796" fill="#B3B3B3" width="7.642" height="16.675"/>
		<rect x="115.332" y="924.386" fill="#999999" width="9.032" height="2.084"/>
		<rect x="128.533" y="909.796" fill="#B3B3B3" width="8.337" height="16.675"/>
		<rect x="127.838" y="924.386" fill="#999999" width="9.727" height="2.084"/>
	</g>
	<g>
		<rect x="91.71" y="936.892" opacity="0.5" fill="#D9D9D9" enable-background="new    " width="23.622" height="9.032"/>
		<path opacity="0.2" fill="#999999" enable-background="new    " d="M139.649,938.977v-2.084h-55.82
			c1.635,17.369,0.747,28.486-0.195,46.55h53.236v-8.337h2.779v-1.39h-2.779v-15.98h2.779v-2.084h-2.779v-16.674H139.649z"/>
		<rect x="77.814" y="935.503" fill="#D9D9D9" width="56.971" height="47.939"/>
		<rect x="75.73" y="954.262" fill="#B3B3B3" width="61.835" height="1.39"/>
		<rect x="75.73" y="935.503" fill="#B3B3B3" width="61.835" height="1.39"/>
		<rect x="75.73" y="971.631" fill="#B3B3B3" width="61.835" height="2.084"/>
		<rect x="102.826" y="942.45" fill="#B3B3B3" width="6.948" height="7.642"/>
		<rect x="85.457" y="942.45" fill="#B3B3B3" width="6.948" height="7.642"/>
		<rect x="120.89" y="942.45" fill="#B3B3B3" width="6.948" height="7.642"/>
		<rect x="102.826" y="959.125" fill="#B3B3B3" width="6.948" height="8.337"/>
		<rect x="85.457" y="959.125" fill="#B3B3B3" width="6.948" height="8.337"/>
		<rect x="120.89" y="959.125" fill="#B3B3B3" width="6.948" height="8.337"/>
	</g>
	<g>
		<g>
			<polygon opacity="0.1" enable-background="new    " points="183.42,902.154 127.845,902.154 90.955,982.052 183.42,982.052 			
				"/>
			<rect x="130.617" y="864.636" fill="#E6E6E6" width="55.582" height="117.416"/>
			<g>
				<rect x="155.629" y="881.311" fill="#CCCCCC" width="6.253" height="82.678"/>
				<rect x="139.649" y="881.311" fill="#CCCCCC" width="6.253" height="82.678"/>
				<rect x="171.608" y="881.311" fill="#CCCCCC" width="6.253" height="82.678"/>
			</g>
			<polygon opacity="0.1" enable-background="new    " points="179.946,864.713 179.946,982.052 130.532,982.052 			"/>
		</g>
		<rect x="141.733" y="861.857" fill="#F1F0AF" width="33.349" height="2.779"/>
		<rect x="141.733" y="861.857" fill="#D9D9D9" width="33.349" height="2.779"/>
		<rect x="141.733" y="861.857" fill="#B3B3B3" width="15.98" height="2.779"/>
	</g>
	<g>
		<polygon fill="#EA5752" points="223.022,795.159 223.022,793.075 224.411,793.075 224.411,791.52 224.411,789.601 
			223.022,789.601 223.022,791.685 220.937,791.685 220.937,793.075 219.548,793.075 219.548,791.685 217.463,791.685 
			217.463,789.601 215.379,789.601 215.379,788.211 213.99,788.211 213.99,789.745 213.99,791.685 215.379,791.685 215.379,793.075 
			213.99,793.075 213.99,791.685 212.156,791.685 212.156,791.685 210.516,791.685 210.516,792.38 208.431,792.38 208.431,790.296 
			210.516,790.296 210.516,789.745 210.516,788.211 208.431,788.211 208.431,789.601 207.042,789.601 207.042,791.685 
			204.958,791.685 204.958,793.075 203.568,793.075 203.568,791.685 201.484,791.685 201.484,788.906 199.399,788.906 
			199.399,791.52 199.399,793.075 201.484,793.075 201.484,795.159 199.399,795.159 199.399,796.846 199.399,796.846 
			199.399,815.307 208.124,815.307 210.248,819.328 212.46,823.331 214.673,819.242 216.797,815.307 224.411,815.307 
			224.411,795.159 		"/>
		<rect x="203.568" y="788.906" fill="#EA5752" width="1.39" height="1.39"/>
		<rect x="204.958" y="786.822" fill="#EA5752" width="2.084" height="2.084"/>
		<rect x="211.905" y="786.127" fill="#EA5752" width="2.084" height="2.084"/>
		<rect x="219.548" y="789.601" fill="#EA5752" width="1.39" height="2.084"/>
		<rect x="217.463" y="788.211" fill="#EA5752" width="2.084" height="1.39"/>
		<rect x="220.937" y="785.432" fill="#EA5752" width="2.084" height="1.39"/>
		<rect x="201.484" y="785.432" fill="#EA5752" width="2.084" height="1.39"/>
		<rect x="207.042" y="783.348" fill="#EA5752" width="1.39" height="2.084"/>
		<rect x="216.769" y="783.348" fill="#EA5752" width="1.39" height="2.084"/>
	</g>
	<rect x="323.069" y="938.282" fill="#D9D9D9" width="27.791" height="43.076"/>
	<rect x="318.9" y="945.23" fill="#BFBFBF" width="26.401" height="6.948"/>
	<rect x="318.9" y="956.346" fill="#BFBFBF" width="26.401" height="8.337"/>
	<rect x="318.9" y="968.852" fill="#BFBFBF" width="26.401" height="7.642"/>
	<g>
		<polygon fill="#F1F0AF" points="268.841,870.427 252.897,875.868 252.897,882.474 284.856,880.697 284.856,875.868 		"/>
		<rect x="248.728" y="878.531" fill="#F1F0AF" width="40.992" height="6.948"/>
		<polygon fill="#CCCCCC" points="284.856,878.531 284.856,875.868 268.841,870.427 252.897,875.868 252.897,878.531 
			248.728,878.531 248.728,885.479 289.72,885.479 289.72,878.531 		"/>
		<rect x="242.475" y="881.311" fill="#CCCCCC" width="52.108" height="100.742"/>
		<rect x="242.475" y="881.311" fill="#B3B3B3" width="52.108" height="3.474"/>
		<rect x="250.118" y="897.985" fill="#B3B3B3" width="36.823" height="4.169"/>
		<rect x="250.118" y="908.407" fill="#B3B3B3" width="36.823" height="4.863"/>
		<rect x="250.118" y="918.133" fill="#B3B3B3" width="36.823" height="4.863"/>
		<rect x="250.118" y="929.25" fill="#B3B3B3" width="36.823" height="4.169"/>
		<rect x="250.118" y="938.977" fill="#B3B3B3" width="36.823" height="4.169"/>
		<rect x="250.118" y="949.398" fill="#B3B3B3" width="36.823" height="4.863"/>
		<rect x="250.118" y="959.125" fill="#B3B3B3" width="36.823" height="4.863"/>
	</g>
	<rect x="197.315" y="831.287" fill="#6DC5A7" width="30.57" height="12.506"/>
	<rect x="188.283" y="837.54" fill="#6DC5A7" width="48.634" height="18.759"/>
	<polygon fill="#666666" points="227.885,837.54 227.885,831.287 197.315,831.287 197.315,837.54 188.283,837.54 188.283,856.299 
		236.917,856.299 236.917,837.54 	"/>
	<polygon opacity="0.1" enable-background="new    " points="227.885,837.54 227.885,831.287 197.315,831.287 197.315,837.54 
		188.283,837.54 188.283,856.299 236.917,856.299 236.917,837.54 	"/>
	<rect x="179.946" y="845.877" fill="#666666" width="65.309" height="136.175"/>
	<rect x="179.946" y="845.877" opacity="0.3" fill="#010101" enable-background="new    " width="65.309" height="3.474"/>
	<g opacity="0.3">
		<rect x="201.484" y="875.058" fill="#010101" width="9.032" height="12.506"/>
		<rect x="188.283" y="875.058" fill="#010101" width="9.032" height="12.506"/>
		<rect x="214.684" y="875.058" fill="#010101" width="9.032" height="12.506"/>
		<rect x="227.885" y="875.058" fill="#010101" width="9.032" height="12.506"/>
		<rect x="201.484" y="892.427" fill="#010101" width="9.032" height="12.506"/>
		<rect x="188.283" y="892.427" fill="#010101" width="9.032" height="12.506"/>
		<rect x="214.684" y="892.427" fill="#010101" width="9.032" height="12.506"/>
		<rect x="227.885" y="892.427" fill="#010101" width="9.032" height="12.506"/>
		<rect x="201.484" y="856.994" fill="#010101" width="9.032" height="11.811"/>
		<rect x="188.283" y="856.994" fill="#010101" width="9.032" height="11.811"/>
		<rect x="214.684" y="856.994" fill="#010101" width="9.032" height="11.811"/>
		<rect x="227.885" y="856.994" fill="#010101" width="9.032" height="11.811"/>
		<rect x="201.484" y="910.491" fill="#010101" width="9.032" height="12.506"/>
		<rect x="188.283" y="910.491" fill="#010101" width="9.032" height="12.506"/>
		<rect x="214.684" y="910.491" fill="#010101" width="9.032" height="12.506"/>
		<rect x="227.885" y="910.491" fill="#010101" width="9.032" height="12.506"/>
		<rect x="201.484" y="928.555" fill="#010101" width="9.032" height="11.811"/>
		<rect x="188.283" y="928.555" fill="#010101" width="9.032" height="11.811"/>
		<rect x="214.684" y="928.555" fill="#010101" width="9.032" height="11.811"/>
		<rect x="227.885" y="928.555" fill="#010101" width="9.032" height="11.811"/>
		<rect x="201.484" y="945.924" fill="#010101" width="9.032" height="12.506"/>
		<rect x="188.283" y="945.924" fill="#010101" width="9.032" height="12.506"/>
		<rect x="214.684" y="945.924" fill="#010101" width="9.032" height="12.506"/>
		<rect x="227.885" y="945.924" fill="#010101" width="9.032" height="12.506"/>
	</g>
	<g opacity="0.3">
		<rect x="203.568" y="964.683" width="17.369" height="17.369"/>
	</g>
	<g opacity="0.3">
		<polygon points="215.379,982.052 220.937,982.052 220.937,964.683 203.568,964.683 203.568,968.852 215.379,968.852 		"/>
	</g>
	<rect x="192.452" y="853.254" fill="none" stroke="#666666" stroke-width="2" stroke-miterlimit="10" width="0" height="106.731"/>
	<rect x="205.652" y="853.254" fill="none" stroke="#666666" stroke-width="2" stroke-miterlimit="10" width="0" height="106.731"/>
	<rect x="219.548" y="853.254" fill="none" stroke="#666666" stroke-width="2" stroke-miterlimit="10" width="0" height="106.731"/>
	<rect x="232.748" y="853.254" fill="none" stroke="#666666" stroke-width="2" stroke-miterlimit="10" width="0" height="106.731"/>
	<polygon opacity="0.1" enable-background="new    " points="300.038,920.39 273.196,918.711 243.628,983.165 300.107,984.053 	"/>
	<rect x="277.909" y="938.282" opacity="0.1" enable-background="new    " width="50.718" height="43.771"/>
	<rect x="275.824" y="922.302" fill="#E6E6E6" width="50.718" height="59.75"/>
	<polygon fill="#E6E6E6" points="330.016,918.133 273.74,918.133 273.74,922.485 276.406,923.692 326.877,923.692 330.016,922.485 	
		"/>
	<polygon fill="#CCCCCC" points="273.196,922.302 276.406,923.692 326.877,923.692 330.089,922.302 	"/>
	<polygon opacity="0.1" enable-background="new    " points="301.717,918.133 273.74,918.133 273.74,922.485 276.312,923.692 
		275.824,923.692 275.824,982.052 301.786,982.052 	"/>
	<line fill="none" stroke="#A6A6A6" stroke-width="3" stroke-miterlimit="10" x1="0" y1="983.095" x2="425.2" y2="983.095"/>
	<g>
		<polygon fill="#FFFFFF" points="205.526,799.328 210.506,799.328 220.703,811.139 215.259,811.139 		"/>
		<polygon fill="#FFFFFF" points="219.345,799.328 214.365,799.328 204.168,811.139 209.612,811.139 		"/>
	</g>
	<g>
		<rect x="382.819" y="970.241" fill="#B4C295" width="1.39" height="11.811"/>
		<rect x="382.819" y="970.241" fill="#999999" width="1.39" height="11.811"/>
		<path fill="#BFBFBF" d="M388.944,970.591c0,3.206-2.6,5.805-5.807,5.805s-5.807-2.598-5.807-5.805c0-3.206,2.6-13.21,5.807-13.21
			S388.944,967.386,388.944,970.591z"/>
		<line fill="none" stroke="#D9D9D9" stroke-miterlimit="10" x1="383.166" y1="974.41" x2="383.166" y2="963.988"/>
		
			<line fill="none" stroke="#D9D9D9" stroke-width="0.9596" stroke-miterlimit="10" x1="383.044" y1="969.004" x2="386.285" y2="965.763"/>
		
			<line fill="none" stroke="#D9D9D9" stroke-width="0.9596" stroke-miterlimit="10" x1="383.044" y1="971.873" x2="379.803" y2="968.632"/>
		<g>
			<rect x="367.534" y="971.631" fill="#B4C295" width="2.084" height="10.422"/>
			<rect x="367.534" y="971.631" fill="#999999" width="2.084" height="10.422"/>
			<path fill="#BFBFBF" d="M373.491,971.828c0,2.862-2.322,5.184-5.186,5.184c-2.865,0-5.186-2.321-5.186-5.184
				c0-2.862,2.322-11.799,5.186-11.799C371.169,960.029,373.491,968.965,373.491,971.828z"/>
			<line fill="none" stroke="#D9D9D9" stroke-miterlimit="10" x1="368.576" y1="975.105" x2="368.576" y2="965.378"/>
			
				<line fill="none" stroke="#D9D9D9" stroke-width="0.9596" stroke-miterlimit="10" x1="368.363" y1="970.571" x2="371.186" y2="967.748"/>
			
				<line fill="none" stroke="#D9D9D9" stroke-width="0.9596" stroke-miterlimit="10" x1="368.363" y1="973.07" x2="365.54" y2="970.247"/>
		</g>
		<g>
			<rect x="56.971" y="971.631" fill="#B4C295" width="1.39" height="10.422"/>
			<rect x="40.991" y="970.241" fill="#B4C295" width="1.39" height="11.811"/>
			<rect x="56.971" y="971.631" fill="#999999" width="1.39" height="10.422"/>
			<rect x="40.991" y="970.241" fill="#999999" width="1.39" height="11.811"/>
			<path fill="#BFBFBF" d="M62.618,971.828c0,2.862-2.322,5.184-5.186,5.184c-2.865,0-5.186-2.321-5.186-5.184
				c0-2.862,2.322-11.799,5.186-11.799C60.296,960.029,62.618,968.965,62.618,971.828z"/>
			<path fill="#BFBFBF" d="M47.87,970.591c0,3.206-2.6,5.805-5.807,5.805c-3.207,0-5.807-2.598-5.807-5.805
				c0-3.206,2.6-13.21,5.807-13.21C45.27,957.38,47.87,967.386,47.87,970.591z"/>
			<line fill="none" stroke="#D9D9D9" stroke-miterlimit="10" x1="42.034" y1="974.41" x2="42.034" y2="963.988"/>
			
				<line fill="none" stroke="#D9D9D9" stroke-width="0.9596" stroke-miterlimit="10" x1="41.97" y1="969.004" x2="45.212" y2="965.763"/>
			
				<line fill="none" stroke="#D9D9D9" stroke-width="0.9596" stroke-miterlimit="10" x1="41.97" y1="971.873" x2="38.729" y2="968.632"/>
			<line fill="none" stroke="#D9D9D9" stroke-miterlimit="10" x1="57.319" y1="975.105" x2="57.319" y2="965.378"/>
			
				<line fill="none" stroke="#D9D9D9" stroke-width="0.9596" stroke-miterlimit="10" x1="57.489" y1="970.571" x2="60.312" y2="967.748"/>
			
				<line fill="none" stroke="#D9D9D9" stroke-width="0.9596" stroke-miterlimit="10" x1="57.489" y1="973.07" x2="54.666" y2="970.247"/>
		</g>
	</g>
	<polygon opacity="0.1" enable-background="new    " points="211.905,831.287 197.315,831.287 197.315,837.54 188.283,837.54 
		188.283,845.877 179.946,845.877 179.946,981.358 211.905,981.358 	"/>
	<g>
		<rect x="291.109" y="948.009" fill="#B3B3B3" width="6.948" height="6.948"/>
		<rect x="280.688" y="948.009" fill="#B3B3B3" width="6.948" height="6.948"/>
		<rect x="305.699" y="948.009" fill="#CCCCCC" width="6.948" height="6.948"/>
		<rect x="316.121" y="948.009" fill="#CCCCCC" width="6.948" height="6.948"/>
		<rect x="291.109" y="960.515" fill="#B3B3B3" width="6.948" height="7.642"/>
		<rect x="280.688" y="960.515" fill="#B3B3B3" width="6.948" height="7.642"/>
		<rect x="305.699" y="960.515" fill="#CCCCCC" width="6.948" height="7.642"/>
		<rect x="316.121" y="960.515" fill="#CCCCCC" width="6.948" height="7.642"/>
		<rect x="291.109" y="934.113" fill="#B3B3B3" width="6.948" height="8.337"/>
		<rect x="280.688" y="934.113" fill="#B3B3B3" width="6.948" height="8.337"/>
		<rect x="305.699" y="934.113" fill="#CCCCCC" width="6.948" height="8.337"/>
		<rect x="316.121" y="934.113" fill="#CCCCCC" width="6.948" height="8.337"/>
	</g>
</g>
</svg>
