<?xml version="1.0" encoding="utf-8"?>
<!-- Generator: Adobe Illustrator 17.1.0, SVG Export Plug-In . SVG Version: 6.00 Build 0)  -->
<!DOCTYPE svg PUBLIC "-//W3C//DTD SVG 1.1//EN" "http://www.w3.org/Graphics/SVG/1.1/DTD/svg11.dtd">
<svg version="1.1" id="Layer_1" xmlns="http://www.w3.org/2000/svg" xmlns:xlink="http://www.w3.org/1999/xlink" x="0px" y="0px"
	 viewBox="0 0 111.252 75.383" enable-background="new 0 0 111.252 75.383" xml:space="preserve">
<path fill="#FFFFFF" d="M2.57,67.228c0.72-0.206,1.658-1.397,3.547-2.768c1.16-0.844,4.704-3.531,9.606-5.409
	c4.902-1.877,7.171-1.928,8.931-2.251c3.855-0.709,7.949-0.18,10.836,0.515c4.751,1.146,7.826,3.794,12.957,9.887
	c7.186,8.534,13.848,9.427,20.395,7.029c6.289-2.304,15.044-13.634,24.561-24.742c1.523-1.777,16.73-19.36,17.618-20.366
	c0.084-0.093,0.144-0.157,0.144-0.157c0.024-0.036,0.03-0.083,0.044-0.126c0.001-0.004,0.002-0.009,0.004-0.013
	c0.009-0.03,0.027-0.056,0.03-0.088c0.002-0.012,0.02-0.042,0-0.106c-0.011-0.033-0.026-0.071-0.04-0.106
	c-0.018-0.045-0.034-0.076-0.034-0.076c-4.612-8.088-15.281-24.777-17.395-28.073c-0.037-0.057-0.16-0.289-0.438-0.352
	c0.002-0.004,0.004-0.008,0.006-0.012C93.303,0.006,93.26,0,93.214,0h-0.001c-0.003,0-0.006,0.002-0.009,0.003
	c-0.004,0-0.009,0.003-0.014,0.003c-0.156,0.007-0.264,0.073-0.319,0.107c-0.004,0.002-0.009,0.005-0.014,0.008
	c-0.005,0.003-0.012,0.006-0.014,0.008c-0.798,0.465-1.815,1.066-2.987,1.763c-8.204,4.877-23.938,14.432-24.122,14.56
	c-0.051,0.037-0.093,0.069-0.125,0.1c-0.005,0.004-0.006,0.008-0.01,0.012c-0.017,0.02-0.03,0.035-0.042,0.053
	c-0.004,0.008-0.013,0.016-0.017,0.021c-0.032,0.062-0.033,0.129-0.013,0.225c0,0.006,0.012,0.059,0.033,0.159
	c0.573,2.758,10.365,48.188,10.704,49.76c-1.18,1.174-2.372,2.277-3.573,3.212c-1.643,1.278-3.216,2.315-4.741,2.824
	c-2.086,0.697-3.767,1.016-5.517,0.912c-5.252-0.317-9.298-3.799-12.083-7.15c-4.516-5.438-8.496-11.562-20.145-12.518
	C17.023,52.979,6.985,58.721,3.664,61.32c-1.627,1.273-2.723,1.965-3.268,2.717c-0.566,0.781-0.537,1.84,0.158,2.583
	C1.25,67.363,1.949,67.405,2.57,67.228z"/>
</svg>
